<svg xmlns="http://www.w3.org/2000/svg" viewBox="0 0 512 512" width="512" height="512" id="svgcontent" overflow="visible" x="659.5" y="512"><defs opacity="0.33" style="pointer-events: none"><linearGradient id="handlerGradient" x1="0%" y1="0%" x2="100%" y2="100%"><stop offset="0%" stop-opacity="1" stop-color="rgb(128, 202, 255)"></stop><stop offset="100%" stop-opacity="1" stop-color="rgb(27, 147, 235)"></stop></linearGradient></defs><g class="layer" style="pointer-events:all"><title style="pointer-events: none" opacity="0.33">Layer 1</title><g class="layer" id="svg_2"><circle cx="256" cy="256" fill="url(#handlerGradient)" stroke="#3689d5" stroke-width="1" r="254" id="svg_1" transform="matrix(1 0 0 1 0 0)"></circle><path fill="#ffffff" d="M378.62,270.76L351.24,298.04L206.3,153.56L233.68,126.28C246.39,113.61 237.38,91.95 219.41,91.95L117.12,91.95C105.99,91.95 96.95,100.96 96.95,112.06L96.95,214.03C96.95,231.94 118.68,240.91 131.38,228.24L158.76,200.96L303.7,345.44L276.32,372.72C263.61,385.39 272.62,407.05 290.59,407.05L392.88,407.05C404.01,407.05 413.05,398.04 413.05,386.94L413.05,284.97C413.05,267.06 391.32,258.09 378.62,270.76z" id="svg_3" transform="rotate(90 255 249.5)"></path></g></g></svg>
